<mxfile host="Electron" agent="Mozilla/5.0 (Windows NT 10.0; Win64; x64) AppleWebKit/537.36 (KHTML, like Gecko) draw.io/28.0.6 Chrome/138.0.7204.100 Electron/37.2.3 Safari/537.36" version="28.0.6">
  <diagram name="Page-1" id="2Ye0519agNgFwthAld9Z">
    <mxGraphModel dx="1042" dy="626" grid="1" gridSize="10" guides="1" tooltips="1" connect="1" arrows="1" fold="1" page="1" pageScale="1" pageWidth="827" pageHeight="1169" math="0" shadow="0">
      <root>
        <mxCell id="0" />
        <mxCell id="1" parent="0" />
        <mxCell id="xxxzWwq94ZiGuZ_kyx1f-5" value="&lt;font style=&quot;font-size: 16px;&quot;&gt;gold.dim_customers&lt;/font&gt;" style="shape=table;startSize=40;container=1;collapsible=1;childLayout=tableLayout;fixedRows=1;rowLines=0;fontStyle=1;align=center;resizeLast=1;html=1;rounded=1;fillColor=#fff2cc;strokeColor=#d6b656;" vertex="1" parent="1">
          <mxGeometry x="30" y="140" width="230" height="430" as="geometry" />
        </mxCell>
        <mxCell id="xxxzWwq94ZiGuZ_kyx1f-6" value="" style="shape=tableRow;horizontal=0;startSize=0;swimlaneHead=0;swimlaneBody=0;fillColor=none;collapsible=0;dropTarget=0;points=[[0,0.5],[1,0.5]];portConstraint=eastwest;top=0;left=0;right=0;bottom=1;fontSize=16;" vertex="1" parent="xxxzWwq94ZiGuZ_kyx1f-5">
          <mxGeometry y="40" width="230" height="39" as="geometry" />
        </mxCell>
        <mxCell id="xxxzWwq94ZiGuZ_kyx1f-7" value="PK" style="shape=partialRectangle;connectable=0;fillColor=none;top=0;left=0;bottom=0;right=0;fontStyle=1;overflow=hidden;whiteSpace=wrap;html=1;fontSize=16;" vertex="1" parent="xxxzWwq94ZiGuZ_kyx1f-6">
          <mxGeometry width="30" height="39" as="geometry">
            <mxRectangle width="30" height="39" as="alternateBounds" />
          </mxGeometry>
        </mxCell>
        <mxCell id="xxxzWwq94ZiGuZ_kyx1f-8" value="customer_key" style="shape=partialRectangle;connectable=0;fillColor=none;top=0;left=0;bottom=0;right=0;align=left;spacingLeft=6;fontStyle=5;overflow=hidden;whiteSpace=wrap;html=1;fontSize=16;" vertex="1" parent="xxxzWwq94ZiGuZ_kyx1f-6">
          <mxGeometry x="30" width="200" height="39" as="geometry">
            <mxRectangle width="200" height="39" as="alternateBounds" />
          </mxGeometry>
        </mxCell>
        <mxCell id="xxxzWwq94ZiGuZ_kyx1f-9" value="" style="shape=tableRow;horizontal=0;startSize=0;swimlaneHead=0;swimlaneBody=0;fillColor=none;collapsible=0;dropTarget=0;points=[[0,0.5],[1,0.5]];portConstraint=eastwest;top=0;left=0;right=0;bottom=0;fontSize=16;fontStyle=1" vertex="1" parent="xxxzWwq94ZiGuZ_kyx1f-5">
          <mxGeometry y="79" width="230" height="39" as="geometry" />
        </mxCell>
        <mxCell id="xxxzWwq94ZiGuZ_kyx1f-10" value="" style="shape=partialRectangle;connectable=0;fillColor=none;top=0;left=0;bottom=0;right=0;editable=1;overflow=hidden;whiteSpace=wrap;html=1;fontSize=16;fontStyle=1" vertex="1" parent="xxxzWwq94ZiGuZ_kyx1f-9">
          <mxGeometry width="30" height="39" as="geometry">
            <mxRectangle width="30" height="39" as="alternateBounds" />
          </mxGeometry>
        </mxCell>
        <mxCell id="xxxzWwq94ZiGuZ_kyx1f-11" value="customer_id" style="shape=partialRectangle;connectable=0;fillColor=none;top=0;left=0;bottom=0;right=0;align=left;spacingLeft=6;overflow=hidden;whiteSpace=wrap;html=1;fontSize=16;fontStyle=1" vertex="1" parent="xxxzWwq94ZiGuZ_kyx1f-9">
          <mxGeometry x="30" width="200" height="39" as="geometry">
            <mxRectangle width="200" height="39" as="alternateBounds" />
          </mxGeometry>
        </mxCell>
        <mxCell id="xxxzWwq94ZiGuZ_kyx1f-12" value="" style="shape=tableRow;horizontal=0;startSize=0;swimlaneHead=0;swimlaneBody=0;fillColor=none;collapsible=0;dropTarget=0;points=[[0,0.5],[1,0.5]];portConstraint=eastwest;top=0;left=0;right=0;bottom=0;fontSize=16;fontStyle=1" vertex="1" parent="xxxzWwq94ZiGuZ_kyx1f-5">
          <mxGeometry y="118" width="230" height="39" as="geometry" />
        </mxCell>
        <mxCell id="xxxzWwq94ZiGuZ_kyx1f-13" value="" style="shape=partialRectangle;connectable=0;fillColor=none;top=0;left=0;bottom=0;right=0;editable=1;overflow=hidden;whiteSpace=wrap;html=1;fontSize=16;fontStyle=1" vertex="1" parent="xxxzWwq94ZiGuZ_kyx1f-12">
          <mxGeometry width="30" height="39" as="geometry">
            <mxRectangle width="30" height="39" as="alternateBounds" />
          </mxGeometry>
        </mxCell>
        <mxCell id="xxxzWwq94ZiGuZ_kyx1f-14" value="customer_number" style="shape=partialRectangle;connectable=0;fillColor=none;top=0;left=0;bottom=0;right=0;align=left;spacingLeft=6;overflow=hidden;whiteSpace=wrap;html=1;fontSize=16;fontStyle=1" vertex="1" parent="xxxzWwq94ZiGuZ_kyx1f-12">
          <mxGeometry x="30" width="200" height="39" as="geometry">
            <mxRectangle width="200" height="39" as="alternateBounds" />
          </mxGeometry>
        </mxCell>
        <mxCell id="xxxzWwq94ZiGuZ_kyx1f-15" value="" style="shape=tableRow;horizontal=0;startSize=0;swimlaneHead=0;swimlaneBody=0;fillColor=none;collapsible=0;dropTarget=0;points=[[0,0.5],[1,0.5]];portConstraint=eastwest;top=0;left=0;right=0;bottom=0;fontSize=16;fontStyle=1" vertex="1" parent="xxxzWwq94ZiGuZ_kyx1f-5">
          <mxGeometry y="157" width="230" height="39" as="geometry" />
        </mxCell>
        <mxCell id="xxxzWwq94ZiGuZ_kyx1f-16" value="" style="shape=partialRectangle;connectable=0;fillColor=none;top=0;left=0;bottom=0;right=0;editable=1;overflow=hidden;whiteSpace=wrap;html=1;fontSize=16;fontStyle=1" vertex="1" parent="xxxzWwq94ZiGuZ_kyx1f-15">
          <mxGeometry width="30" height="39" as="geometry">
            <mxRectangle width="30" height="39" as="alternateBounds" />
          </mxGeometry>
        </mxCell>
        <mxCell id="xxxzWwq94ZiGuZ_kyx1f-17" value="first_name" style="shape=partialRectangle;connectable=0;fillColor=none;top=0;left=0;bottom=0;right=0;align=left;spacingLeft=6;overflow=hidden;whiteSpace=wrap;html=1;fontSize=16;fontStyle=1" vertex="1" parent="xxxzWwq94ZiGuZ_kyx1f-15">
          <mxGeometry x="30" width="200" height="39" as="geometry">
            <mxRectangle width="200" height="39" as="alternateBounds" />
          </mxGeometry>
        </mxCell>
        <mxCell id="xxxzWwq94ZiGuZ_kyx1f-18" value="" style="shape=tableRow;horizontal=0;startSize=0;swimlaneHead=0;swimlaneBody=0;fillColor=none;collapsible=0;dropTarget=0;points=[[0,0.5],[1,0.5]];portConstraint=eastwest;top=0;left=0;right=0;bottom=0;fontSize=16;fontStyle=1" vertex="1" parent="xxxzWwq94ZiGuZ_kyx1f-5">
          <mxGeometry y="196" width="230" height="39" as="geometry" />
        </mxCell>
        <mxCell id="xxxzWwq94ZiGuZ_kyx1f-19" value="" style="shape=partialRectangle;connectable=0;fillColor=none;top=0;left=0;bottom=0;right=0;editable=1;overflow=hidden;whiteSpace=wrap;html=1;fontSize=16;fontStyle=1" vertex="1" parent="xxxzWwq94ZiGuZ_kyx1f-18">
          <mxGeometry width="30" height="39" as="geometry">
            <mxRectangle width="30" height="39" as="alternateBounds" />
          </mxGeometry>
        </mxCell>
        <mxCell id="xxxzWwq94ZiGuZ_kyx1f-20" value="last_name" style="shape=partialRectangle;connectable=0;fillColor=none;top=0;left=0;bottom=0;right=0;align=left;spacingLeft=6;overflow=hidden;whiteSpace=wrap;html=1;fontSize=16;fontStyle=1" vertex="1" parent="xxxzWwq94ZiGuZ_kyx1f-18">
          <mxGeometry x="30" width="200" height="39" as="geometry">
            <mxRectangle width="200" height="39" as="alternateBounds" />
          </mxGeometry>
        </mxCell>
        <mxCell id="xxxzWwq94ZiGuZ_kyx1f-21" value="" style="shape=tableRow;horizontal=0;startSize=0;swimlaneHead=0;swimlaneBody=0;fillColor=none;collapsible=0;dropTarget=0;points=[[0,0.5],[1,0.5]];portConstraint=eastwest;top=0;left=0;right=0;bottom=0;fontSize=16;fontStyle=1" vertex="1" parent="xxxzWwq94ZiGuZ_kyx1f-5">
          <mxGeometry y="235" width="230" height="39" as="geometry" />
        </mxCell>
        <mxCell id="xxxzWwq94ZiGuZ_kyx1f-22" value="" style="shape=partialRectangle;connectable=0;fillColor=none;top=0;left=0;bottom=0;right=0;editable=1;overflow=hidden;whiteSpace=wrap;html=1;fontSize=16;fontStyle=1" vertex="1" parent="xxxzWwq94ZiGuZ_kyx1f-21">
          <mxGeometry width="30" height="39" as="geometry">
            <mxRectangle width="30" height="39" as="alternateBounds" />
          </mxGeometry>
        </mxCell>
        <mxCell id="xxxzWwq94ZiGuZ_kyx1f-23" value="country" style="shape=partialRectangle;connectable=0;fillColor=none;top=0;left=0;bottom=0;right=0;align=left;spacingLeft=6;overflow=hidden;whiteSpace=wrap;html=1;fontSize=16;fontStyle=1" vertex="1" parent="xxxzWwq94ZiGuZ_kyx1f-21">
          <mxGeometry x="30" width="200" height="39" as="geometry">
            <mxRectangle width="200" height="39" as="alternateBounds" />
          </mxGeometry>
        </mxCell>
        <mxCell id="xxxzWwq94ZiGuZ_kyx1f-24" value="" style="shape=tableRow;horizontal=0;startSize=0;swimlaneHead=0;swimlaneBody=0;fillColor=none;collapsible=0;dropTarget=0;points=[[0,0.5],[1,0.5]];portConstraint=eastwest;top=0;left=0;right=0;bottom=0;fontSize=16;fontStyle=1" vertex="1" parent="xxxzWwq94ZiGuZ_kyx1f-5">
          <mxGeometry y="274" width="230" height="39" as="geometry" />
        </mxCell>
        <mxCell id="xxxzWwq94ZiGuZ_kyx1f-25" value="" style="shape=partialRectangle;connectable=0;fillColor=none;top=0;left=0;bottom=0;right=0;editable=1;overflow=hidden;whiteSpace=wrap;html=1;fontSize=16;fontStyle=1" vertex="1" parent="xxxzWwq94ZiGuZ_kyx1f-24">
          <mxGeometry width="30" height="39" as="geometry">
            <mxRectangle width="30" height="39" as="alternateBounds" />
          </mxGeometry>
        </mxCell>
        <mxCell id="xxxzWwq94ZiGuZ_kyx1f-26" value="marital_status" style="shape=partialRectangle;connectable=0;fillColor=none;top=0;left=0;bottom=0;right=0;align=left;spacingLeft=6;overflow=hidden;whiteSpace=wrap;html=1;fontSize=16;fontStyle=1" vertex="1" parent="xxxzWwq94ZiGuZ_kyx1f-24">
          <mxGeometry x="30" width="200" height="39" as="geometry">
            <mxRectangle width="200" height="39" as="alternateBounds" />
          </mxGeometry>
        </mxCell>
        <mxCell id="xxxzWwq94ZiGuZ_kyx1f-27" value="" style="shape=tableRow;horizontal=0;startSize=0;swimlaneHead=0;swimlaneBody=0;fillColor=none;collapsible=0;dropTarget=0;points=[[0,0.5],[1,0.5]];portConstraint=eastwest;top=0;left=0;right=0;bottom=0;fontSize=16;fontStyle=1" vertex="1" parent="xxxzWwq94ZiGuZ_kyx1f-5">
          <mxGeometry y="313" width="230" height="39" as="geometry" />
        </mxCell>
        <mxCell id="xxxzWwq94ZiGuZ_kyx1f-28" value="" style="shape=partialRectangle;connectable=0;fillColor=none;top=0;left=0;bottom=0;right=0;editable=1;overflow=hidden;whiteSpace=wrap;html=1;fontSize=16;fontStyle=1" vertex="1" parent="xxxzWwq94ZiGuZ_kyx1f-27">
          <mxGeometry width="30" height="39" as="geometry">
            <mxRectangle width="30" height="39" as="alternateBounds" />
          </mxGeometry>
        </mxCell>
        <mxCell id="xxxzWwq94ZiGuZ_kyx1f-29" value="gender" style="shape=partialRectangle;connectable=0;fillColor=none;top=0;left=0;bottom=0;right=0;align=left;spacingLeft=6;overflow=hidden;whiteSpace=wrap;html=1;fontSize=16;fontStyle=1" vertex="1" parent="xxxzWwq94ZiGuZ_kyx1f-27">
          <mxGeometry x="30" width="200" height="39" as="geometry">
            <mxRectangle width="200" height="39" as="alternateBounds" />
          </mxGeometry>
        </mxCell>
        <mxCell id="xxxzWwq94ZiGuZ_kyx1f-30" value="" style="shape=tableRow;horizontal=0;startSize=0;swimlaneHead=0;swimlaneBody=0;fillColor=none;collapsible=0;dropTarget=0;points=[[0,0.5],[1,0.5]];portConstraint=eastwest;top=0;left=0;right=0;bottom=0;fontSize=16;fontStyle=1" vertex="1" parent="xxxzWwq94ZiGuZ_kyx1f-5">
          <mxGeometry y="352" width="230" height="39" as="geometry" />
        </mxCell>
        <mxCell id="xxxzWwq94ZiGuZ_kyx1f-31" value="" style="shape=partialRectangle;connectable=0;fillColor=none;top=0;left=0;bottom=0;right=0;editable=1;overflow=hidden;whiteSpace=wrap;html=1;fontSize=16;fontStyle=1" vertex="1" parent="xxxzWwq94ZiGuZ_kyx1f-30">
          <mxGeometry width="30" height="39" as="geometry">
            <mxRectangle width="30" height="39" as="alternateBounds" />
          </mxGeometry>
        </mxCell>
        <mxCell id="xxxzWwq94ZiGuZ_kyx1f-32" value="birth_date" style="shape=partialRectangle;connectable=0;fillColor=none;top=0;left=0;bottom=0;right=0;align=left;spacingLeft=6;overflow=hidden;whiteSpace=wrap;html=1;fontSize=16;fontStyle=1" vertex="1" parent="xxxzWwq94ZiGuZ_kyx1f-30">
          <mxGeometry x="30" width="200" height="39" as="geometry">
            <mxRectangle width="200" height="39" as="alternateBounds" />
          </mxGeometry>
        </mxCell>
        <mxCell id="xxxzWwq94ZiGuZ_kyx1f-33" value="" style="shape=tableRow;horizontal=0;startSize=0;swimlaneHead=0;swimlaneBody=0;fillColor=none;collapsible=0;dropTarget=0;points=[[0,0.5],[1,0.5]];portConstraint=eastwest;top=0;left=0;right=0;bottom=0;fontSize=16;fontStyle=1" vertex="1" parent="xxxzWwq94ZiGuZ_kyx1f-5">
          <mxGeometry y="391" width="230" height="39" as="geometry" />
        </mxCell>
        <mxCell id="xxxzWwq94ZiGuZ_kyx1f-34" value="" style="shape=partialRectangle;connectable=0;fillColor=none;top=0;left=0;bottom=0;right=0;editable=1;overflow=hidden;whiteSpace=wrap;html=1;fontSize=16;fontStyle=1" vertex="1" parent="xxxzWwq94ZiGuZ_kyx1f-33">
          <mxGeometry width="30" height="39" as="geometry">
            <mxRectangle width="30" height="39" as="alternateBounds" />
          </mxGeometry>
        </mxCell>
        <mxCell id="xxxzWwq94ZiGuZ_kyx1f-35" value="create_date" style="shape=partialRectangle;connectable=0;fillColor=none;top=0;left=0;bottom=0;right=0;align=left;spacingLeft=6;overflow=hidden;whiteSpace=wrap;html=1;fontSize=16;fontStyle=1" vertex="1" parent="xxxzWwq94ZiGuZ_kyx1f-33">
          <mxGeometry x="30" width="200" height="39" as="geometry">
            <mxRectangle width="200" height="39" as="alternateBounds" />
          </mxGeometry>
        </mxCell>
        <mxCell id="xxxzWwq94ZiGuZ_kyx1f-39" value="&lt;font style=&quot;font-size: 16px;&quot;&gt;gold.dim_customers&lt;/font&gt;" style="shape=table;startSize=40;container=1;collapsible=1;childLayout=tableLayout;fixedRows=1;rowLines=0;fontStyle=1;align=center;resizeLast=1;html=1;rounded=1;fillColor=#fff2cc;strokeColor=#d6b656;" vertex="1" parent="1">
          <mxGeometry x="730" y="140" width="230" height="469" as="geometry" />
        </mxCell>
        <mxCell id="xxxzWwq94ZiGuZ_kyx1f-40" value="" style="shape=tableRow;horizontal=0;startSize=0;swimlaneHead=0;swimlaneBody=0;fillColor=none;collapsible=0;dropTarget=0;points=[[0,0.5],[1,0.5]];portConstraint=eastwest;top=0;left=0;right=0;bottom=1;fontSize=16;" vertex="1" parent="xxxzWwq94ZiGuZ_kyx1f-39">
          <mxGeometry y="40" width="230" height="39" as="geometry" />
        </mxCell>
        <mxCell id="xxxzWwq94ZiGuZ_kyx1f-41" value="PK" style="shape=partialRectangle;connectable=0;fillColor=none;top=0;left=0;bottom=0;right=0;fontStyle=1;overflow=hidden;whiteSpace=wrap;html=1;fontSize=16;" vertex="1" parent="xxxzWwq94ZiGuZ_kyx1f-40">
          <mxGeometry width="30" height="39" as="geometry">
            <mxRectangle width="30" height="39" as="alternateBounds" />
          </mxGeometry>
        </mxCell>
        <mxCell id="xxxzWwq94ZiGuZ_kyx1f-42" value="customer_key" style="shape=partialRectangle;connectable=0;fillColor=none;top=0;left=0;bottom=0;right=0;align=left;spacingLeft=6;fontStyle=5;overflow=hidden;whiteSpace=wrap;html=1;fontSize=16;" vertex="1" parent="xxxzWwq94ZiGuZ_kyx1f-40">
          <mxGeometry x="30" width="200" height="39" as="geometry">
            <mxRectangle width="200" height="39" as="alternateBounds" />
          </mxGeometry>
        </mxCell>
        <mxCell id="xxxzWwq94ZiGuZ_kyx1f-43" value="" style="shape=tableRow;horizontal=0;startSize=0;swimlaneHead=0;swimlaneBody=0;fillColor=none;collapsible=0;dropTarget=0;points=[[0,0.5],[1,0.5]];portConstraint=eastwest;top=0;left=0;right=0;bottom=0;fontSize=16;fontStyle=1" vertex="1" parent="xxxzWwq94ZiGuZ_kyx1f-39">
          <mxGeometry y="79" width="230" height="39" as="geometry" />
        </mxCell>
        <mxCell id="xxxzWwq94ZiGuZ_kyx1f-44" value="" style="shape=partialRectangle;connectable=0;fillColor=none;top=0;left=0;bottom=0;right=0;editable=1;overflow=hidden;whiteSpace=wrap;html=1;fontSize=16;fontStyle=1" vertex="1" parent="xxxzWwq94ZiGuZ_kyx1f-43">
          <mxGeometry width="30" height="39" as="geometry">
            <mxRectangle width="30" height="39" as="alternateBounds" />
          </mxGeometry>
        </mxCell>
        <mxCell id="xxxzWwq94ZiGuZ_kyx1f-45" value="product_id" style="shape=partialRectangle;connectable=0;fillColor=none;top=0;left=0;bottom=0;right=0;align=left;spacingLeft=6;overflow=hidden;whiteSpace=wrap;html=1;fontSize=16;fontStyle=1" vertex="1" parent="xxxzWwq94ZiGuZ_kyx1f-43">
          <mxGeometry x="30" width="200" height="39" as="geometry">
            <mxRectangle width="200" height="39" as="alternateBounds" />
          </mxGeometry>
        </mxCell>
        <mxCell id="xxxzWwq94ZiGuZ_kyx1f-46" value="" style="shape=tableRow;horizontal=0;startSize=0;swimlaneHead=0;swimlaneBody=0;fillColor=none;collapsible=0;dropTarget=0;points=[[0,0.5],[1,0.5]];portConstraint=eastwest;top=0;left=0;right=0;bottom=0;fontSize=16;fontStyle=1" vertex="1" parent="xxxzWwq94ZiGuZ_kyx1f-39">
          <mxGeometry y="118" width="230" height="39" as="geometry" />
        </mxCell>
        <mxCell id="xxxzWwq94ZiGuZ_kyx1f-47" value="" style="shape=partialRectangle;connectable=0;fillColor=none;top=0;left=0;bottom=0;right=0;editable=1;overflow=hidden;whiteSpace=wrap;html=1;fontSize=16;fontStyle=1" vertex="1" parent="xxxzWwq94ZiGuZ_kyx1f-46">
          <mxGeometry width="30" height="39" as="geometry">
            <mxRectangle width="30" height="39" as="alternateBounds" />
          </mxGeometry>
        </mxCell>
        <mxCell id="xxxzWwq94ZiGuZ_kyx1f-48" value="product_number" style="shape=partialRectangle;connectable=0;fillColor=none;top=0;left=0;bottom=0;right=0;align=left;spacingLeft=6;overflow=hidden;whiteSpace=wrap;html=1;fontSize=16;fontStyle=1" vertex="1" parent="xxxzWwq94ZiGuZ_kyx1f-46">
          <mxGeometry x="30" width="200" height="39" as="geometry">
            <mxRectangle width="200" height="39" as="alternateBounds" />
          </mxGeometry>
        </mxCell>
        <mxCell id="xxxzWwq94ZiGuZ_kyx1f-49" value="" style="shape=tableRow;horizontal=0;startSize=0;swimlaneHead=0;swimlaneBody=0;fillColor=none;collapsible=0;dropTarget=0;points=[[0,0.5],[1,0.5]];portConstraint=eastwest;top=0;left=0;right=0;bottom=0;fontSize=16;fontStyle=1" vertex="1" parent="xxxzWwq94ZiGuZ_kyx1f-39">
          <mxGeometry y="157" width="230" height="39" as="geometry" />
        </mxCell>
        <mxCell id="xxxzWwq94ZiGuZ_kyx1f-50" value="" style="shape=partialRectangle;connectable=0;fillColor=none;top=0;left=0;bottom=0;right=0;editable=1;overflow=hidden;whiteSpace=wrap;html=1;fontSize=16;fontStyle=1" vertex="1" parent="xxxzWwq94ZiGuZ_kyx1f-49">
          <mxGeometry width="30" height="39" as="geometry">
            <mxRectangle width="30" height="39" as="alternateBounds" />
          </mxGeometry>
        </mxCell>
        <mxCell id="xxxzWwq94ZiGuZ_kyx1f-51" value="product_name" style="shape=partialRectangle;connectable=0;fillColor=none;top=0;left=0;bottom=0;right=0;align=left;spacingLeft=6;overflow=hidden;whiteSpace=wrap;html=1;fontSize=16;fontStyle=1" vertex="1" parent="xxxzWwq94ZiGuZ_kyx1f-49">
          <mxGeometry x="30" width="200" height="39" as="geometry">
            <mxRectangle width="200" height="39" as="alternateBounds" />
          </mxGeometry>
        </mxCell>
        <mxCell id="xxxzWwq94ZiGuZ_kyx1f-52" value="" style="shape=tableRow;horizontal=0;startSize=0;swimlaneHead=0;swimlaneBody=0;fillColor=none;collapsible=0;dropTarget=0;points=[[0,0.5],[1,0.5]];portConstraint=eastwest;top=0;left=0;right=0;bottom=0;fontSize=16;fontStyle=1" vertex="1" parent="xxxzWwq94ZiGuZ_kyx1f-39">
          <mxGeometry y="196" width="230" height="39" as="geometry" />
        </mxCell>
        <mxCell id="xxxzWwq94ZiGuZ_kyx1f-53" value="" style="shape=partialRectangle;connectable=0;fillColor=none;top=0;left=0;bottom=0;right=0;editable=1;overflow=hidden;whiteSpace=wrap;html=1;fontSize=16;fontStyle=1" vertex="1" parent="xxxzWwq94ZiGuZ_kyx1f-52">
          <mxGeometry width="30" height="39" as="geometry">
            <mxRectangle width="30" height="39" as="alternateBounds" />
          </mxGeometry>
        </mxCell>
        <mxCell id="xxxzWwq94ZiGuZ_kyx1f-54" value="category_id" style="shape=partialRectangle;connectable=0;fillColor=none;top=0;left=0;bottom=0;right=0;align=left;spacingLeft=6;overflow=hidden;whiteSpace=wrap;html=1;fontSize=16;fontStyle=1" vertex="1" parent="xxxzWwq94ZiGuZ_kyx1f-52">
          <mxGeometry x="30" width="200" height="39" as="geometry">
            <mxRectangle width="200" height="39" as="alternateBounds" />
          </mxGeometry>
        </mxCell>
        <mxCell id="xxxzWwq94ZiGuZ_kyx1f-55" value="" style="shape=tableRow;horizontal=0;startSize=0;swimlaneHead=0;swimlaneBody=0;fillColor=none;collapsible=0;dropTarget=0;points=[[0,0.5],[1,0.5]];portConstraint=eastwest;top=0;left=0;right=0;bottom=0;fontSize=16;fontStyle=1" vertex="1" parent="xxxzWwq94ZiGuZ_kyx1f-39">
          <mxGeometry y="235" width="230" height="39" as="geometry" />
        </mxCell>
        <mxCell id="xxxzWwq94ZiGuZ_kyx1f-56" value="" style="shape=partialRectangle;connectable=0;fillColor=none;top=0;left=0;bottom=0;right=0;editable=1;overflow=hidden;whiteSpace=wrap;html=1;fontSize=16;fontStyle=1" vertex="1" parent="xxxzWwq94ZiGuZ_kyx1f-55">
          <mxGeometry width="30" height="39" as="geometry">
            <mxRectangle width="30" height="39" as="alternateBounds" />
          </mxGeometry>
        </mxCell>
        <mxCell id="xxxzWwq94ZiGuZ_kyx1f-57" value="category" style="shape=partialRectangle;connectable=0;fillColor=none;top=0;left=0;bottom=0;right=0;align=left;spacingLeft=6;overflow=hidden;whiteSpace=wrap;html=1;fontSize=16;fontStyle=1" vertex="1" parent="xxxzWwq94ZiGuZ_kyx1f-55">
          <mxGeometry x="30" width="200" height="39" as="geometry">
            <mxRectangle width="200" height="39" as="alternateBounds" />
          </mxGeometry>
        </mxCell>
        <mxCell id="xxxzWwq94ZiGuZ_kyx1f-58" value="" style="shape=tableRow;horizontal=0;startSize=0;swimlaneHead=0;swimlaneBody=0;fillColor=none;collapsible=0;dropTarget=0;points=[[0,0.5],[1,0.5]];portConstraint=eastwest;top=0;left=0;right=0;bottom=0;fontSize=16;fontStyle=1" vertex="1" parent="xxxzWwq94ZiGuZ_kyx1f-39">
          <mxGeometry y="274" width="230" height="39" as="geometry" />
        </mxCell>
        <mxCell id="xxxzWwq94ZiGuZ_kyx1f-59" value="" style="shape=partialRectangle;connectable=0;fillColor=none;top=0;left=0;bottom=0;right=0;editable=1;overflow=hidden;whiteSpace=wrap;html=1;fontSize=16;fontStyle=1" vertex="1" parent="xxxzWwq94ZiGuZ_kyx1f-58">
          <mxGeometry width="30" height="39" as="geometry">
            <mxRectangle width="30" height="39" as="alternateBounds" />
          </mxGeometry>
        </mxCell>
        <mxCell id="xxxzWwq94ZiGuZ_kyx1f-60" value="subcategory" style="shape=partialRectangle;connectable=0;fillColor=none;top=0;left=0;bottom=0;right=0;align=left;spacingLeft=6;overflow=hidden;whiteSpace=wrap;html=1;fontSize=16;fontStyle=1" vertex="1" parent="xxxzWwq94ZiGuZ_kyx1f-58">
          <mxGeometry x="30" width="200" height="39" as="geometry">
            <mxRectangle width="200" height="39" as="alternateBounds" />
          </mxGeometry>
        </mxCell>
        <mxCell id="xxxzWwq94ZiGuZ_kyx1f-61" value="" style="shape=tableRow;horizontal=0;startSize=0;swimlaneHead=0;swimlaneBody=0;fillColor=none;collapsible=0;dropTarget=0;points=[[0,0.5],[1,0.5]];portConstraint=eastwest;top=0;left=0;right=0;bottom=0;fontSize=16;fontStyle=1" vertex="1" parent="xxxzWwq94ZiGuZ_kyx1f-39">
          <mxGeometry y="313" width="230" height="39" as="geometry" />
        </mxCell>
        <mxCell id="xxxzWwq94ZiGuZ_kyx1f-62" value="" style="shape=partialRectangle;connectable=0;fillColor=none;top=0;left=0;bottom=0;right=0;editable=1;overflow=hidden;whiteSpace=wrap;html=1;fontSize=16;fontStyle=1" vertex="1" parent="xxxzWwq94ZiGuZ_kyx1f-61">
          <mxGeometry width="30" height="39" as="geometry">
            <mxRectangle width="30" height="39" as="alternateBounds" />
          </mxGeometry>
        </mxCell>
        <mxCell id="xxxzWwq94ZiGuZ_kyx1f-63" value="maintenance" style="shape=partialRectangle;connectable=0;fillColor=none;top=0;left=0;bottom=0;right=0;align=left;spacingLeft=6;overflow=hidden;whiteSpace=wrap;html=1;fontSize=16;fontStyle=1" vertex="1" parent="xxxzWwq94ZiGuZ_kyx1f-61">
          <mxGeometry x="30" width="200" height="39" as="geometry">
            <mxRectangle width="200" height="39" as="alternateBounds" />
          </mxGeometry>
        </mxCell>
        <mxCell id="xxxzWwq94ZiGuZ_kyx1f-64" value="" style="shape=tableRow;horizontal=0;startSize=0;swimlaneHead=0;swimlaneBody=0;fillColor=none;collapsible=0;dropTarget=0;points=[[0,0.5],[1,0.5]];portConstraint=eastwest;top=0;left=0;right=0;bottom=0;fontSize=16;fontStyle=1" vertex="1" parent="xxxzWwq94ZiGuZ_kyx1f-39">
          <mxGeometry y="352" width="230" height="39" as="geometry" />
        </mxCell>
        <mxCell id="xxxzWwq94ZiGuZ_kyx1f-65" value="" style="shape=partialRectangle;connectable=0;fillColor=none;top=0;left=0;bottom=0;right=0;editable=1;overflow=hidden;whiteSpace=wrap;html=1;fontSize=16;fontStyle=1" vertex="1" parent="xxxzWwq94ZiGuZ_kyx1f-64">
          <mxGeometry width="30" height="39" as="geometry">
            <mxRectangle width="30" height="39" as="alternateBounds" />
          </mxGeometry>
        </mxCell>
        <mxCell id="xxxzWwq94ZiGuZ_kyx1f-66" value="cost" style="shape=partialRectangle;connectable=0;fillColor=none;top=0;left=0;bottom=0;right=0;align=left;spacingLeft=6;overflow=hidden;whiteSpace=wrap;html=1;fontSize=16;fontStyle=1" vertex="1" parent="xxxzWwq94ZiGuZ_kyx1f-64">
          <mxGeometry x="30" width="200" height="39" as="geometry">
            <mxRectangle width="200" height="39" as="alternateBounds" />
          </mxGeometry>
        </mxCell>
        <mxCell id="xxxzWwq94ZiGuZ_kyx1f-67" value="" style="shape=tableRow;horizontal=0;startSize=0;swimlaneHead=0;swimlaneBody=0;fillColor=none;collapsible=0;dropTarget=0;points=[[0,0.5],[1,0.5]];portConstraint=eastwest;top=0;left=0;right=0;bottom=0;fontSize=16;fontStyle=1" vertex="1" parent="xxxzWwq94ZiGuZ_kyx1f-39">
          <mxGeometry y="391" width="230" height="39" as="geometry" />
        </mxCell>
        <mxCell id="xxxzWwq94ZiGuZ_kyx1f-68" value="" style="shape=partialRectangle;connectable=0;fillColor=none;top=0;left=0;bottom=0;right=0;editable=1;overflow=hidden;whiteSpace=wrap;html=1;fontSize=16;fontStyle=1" vertex="1" parent="xxxzWwq94ZiGuZ_kyx1f-67">
          <mxGeometry width="30" height="39" as="geometry">
            <mxRectangle width="30" height="39" as="alternateBounds" />
          </mxGeometry>
        </mxCell>
        <mxCell id="xxxzWwq94ZiGuZ_kyx1f-69" value="product_line" style="shape=partialRectangle;connectable=0;fillColor=none;top=0;left=0;bottom=0;right=0;align=left;spacingLeft=6;overflow=hidden;whiteSpace=wrap;html=1;fontSize=16;fontStyle=1" vertex="1" parent="xxxzWwq94ZiGuZ_kyx1f-67">
          <mxGeometry x="30" width="200" height="39" as="geometry">
            <mxRectangle width="200" height="39" as="alternateBounds" />
          </mxGeometry>
        </mxCell>
        <mxCell id="xxxzWwq94ZiGuZ_kyx1f-70" value="" style="shape=tableRow;horizontal=0;startSize=0;swimlaneHead=0;swimlaneBody=0;fillColor=none;collapsible=0;dropTarget=0;points=[[0,0.5],[1,0.5]];portConstraint=eastwest;top=0;left=0;right=0;bottom=0;fontSize=16;fontStyle=1" vertex="1" parent="xxxzWwq94ZiGuZ_kyx1f-39">
          <mxGeometry y="430" width="230" height="39" as="geometry" />
        </mxCell>
        <mxCell id="xxxzWwq94ZiGuZ_kyx1f-71" value="" style="shape=partialRectangle;connectable=0;fillColor=none;top=0;left=0;bottom=0;right=0;editable=1;overflow=hidden;whiteSpace=wrap;html=1;fontSize=16;fontStyle=1" vertex="1" parent="xxxzWwq94ZiGuZ_kyx1f-70">
          <mxGeometry width="30" height="39" as="geometry">
            <mxRectangle width="30" height="39" as="alternateBounds" />
          </mxGeometry>
        </mxCell>
        <mxCell id="xxxzWwq94ZiGuZ_kyx1f-72" value="start_date" style="shape=partialRectangle;connectable=0;fillColor=none;top=0;left=0;bottom=0;right=0;align=left;spacingLeft=6;overflow=hidden;whiteSpace=wrap;html=1;fontSize=16;fontStyle=1" vertex="1" parent="xxxzWwq94ZiGuZ_kyx1f-70">
          <mxGeometry x="30" width="200" height="39" as="geometry">
            <mxRectangle width="200" height="39" as="alternateBounds" />
          </mxGeometry>
        </mxCell>
        <mxCell id="xxxzWwq94ZiGuZ_kyx1f-73" value="Sales Data Mart &lt;span style=&quot;font-weight: normal;&quot;&gt;(Star Schema)&lt;/span&gt;" style="text;html=1;align=center;verticalAlign=middle;whiteSpace=wrap;rounded=0;fontSize=28;fontStyle=1" vertex="1" parent="1">
          <mxGeometry x="30" y="20" width="420" height="30" as="geometry" />
        </mxCell>
        <mxCell id="xxxzWwq94ZiGuZ_kyx1f-74" value="&lt;font style=&quot;font-size: 16px;&quot;&gt;gold_fact_sales&lt;/font&gt;" style="shape=table;startSize=40;container=1;collapsible=1;childLayout=tableLayout;fixedRows=1;rowLines=0;fontStyle=1;align=center;resizeLast=1;html=1;rounded=1;fillColor=#d5e8d4;strokeColor=#82b366;" vertex="1" parent="1">
          <mxGeometry x="380" y="140" width="230" height="391" as="geometry" />
        </mxCell>
        <mxCell id="xxxzWwq94ZiGuZ_kyx1f-78" value="" style="shape=tableRow;horizontal=0;startSize=0;swimlaneHead=0;swimlaneBody=0;fillColor=none;collapsible=0;dropTarget=0;points=[[0,0.5],[1,0.5]];portConstraint=eastwest;top=0;left=0;right=0;bottom=0;fontSize=16;fontStyle=1" vertex="1" parent="xxxzWwq94ZiGuZ_kyx1f-74">
          <mxGeometry y="40" width="230" height="39" as="geometry" />
        </mxCell>
        <mxCell id="xxxzWwq94ZiGuZ_kyx1f-79" value="" style="shape=partialRectangle;connectable=0;fillColor=none;top=0;left=0;bottom=0;right=0;editable=1;overflow=hidden;whiteSpace=wrap;html=1;fontSize=16;fontStyle=1" vertex="1" parent="xxxzWwq94ZiGuZ_kyx1f-78">
          <mxGeometry width="40" height="39" as="geometry">
            <mxRectangle width="40" height="39" as="alternateBounds" />
          </mxGeometry>
        </mxCell>
        <mxCell id="xxxzWwq94ZiGuZ_kyx1f-80" value="order_number" style="shape=partialRectangle;connectable=0;fillColor=none;top=0;left=0;bottom=0;right=0;align=left;spacingLeft=6;overflow=hidden;whiteSpace=wrap;html=1;fontSize=16;fontStyle=1" vertex="1" parent="xxxzWwq94ZiGuZ_kyx1f-78">
          <mxGeometry x="40" width="190" height="39" as="geometry">
            <mxRectangle width="190" height="39" as="alternateBounds" />
          </mxGeometry>
        </mxCell>
        <mxCell id="xxxzWwq94ZiGuZ_kyx1f-81" value="" style="shape=tableRow;horizontal=0;startSize=0;swimlaneHead=0;swimlaneBody=0;fillColor=none;collapsible=0;dropTarget=0;points=[[0,0.5],[1,0.5]];portConstraint=eastwest;top=0;left=0;right=0;bottom=0;fontSize=16;fontStyle=1" vertex="1" parent="xxxzWwq94ZiGuZ_kyx1f-74">
          <mxGeometry y="79" width="230" height="39" as="geometry" />
        </mxCell>
        <mxCell id="xxxzWwq94ZiGuZ_kyx1f-82" value="FK1" style="shape=partialRectangle;connectable=0;fillColor=none;top=0;left=0;bottom=0;right=0;editable=1;overflow=hidden;whiteSpace=wrap;html=1;fontSize=16;fontStyle=1" vertex="1" parent="xxxzWwq94ZiGuZ_kyx1f-81">
          <mxGeometry width="40" height="39" as="geometry">
            <mxRectangle width="40" height="39" as="alternateBounds" />
          </mxGeometry>
        </mxCell>
        <mxCell id="xxxzWwq94ZiGuZ_kyx1f-83" value="product_key" style="shape=partialRectangle;connectable=0;fillColor=none;top=0;left=0;bottom=0;right=0;align=left;spacingLeft=6;overflow=hidden;whiteSpace=wrap;html=1;fontSize=16;fontStyle=1" vertex="1" parent="xxxzWwq94ZiGuZ_kyx1f-81">
          <mxGeometry x="40" width="190" height="39" as="geometry">
            <mxRectangle width="190" height="39" as="alternateBounds" />
          </mxGeometry>
        </mxCell>
        <mxCell id="xxxzWwq94ZiGuZ_kyx1f-84" value="" style="shape=tableRow;horizontal=0;startSize=0;swimlaneHead=0;swimlaneBody=0;fillColor=none;collapsible=0;dropTarget=0;points=[[0,0.5],[1,0.5]];portConstraint=eastwest;top=0;left=0;right=0;bottom=0;fontSize=16;fontStyle=1" vertex="1" parent="xxxzWwq94ZiGuZ_kyx1f-74">
          <mxGeometry y="118" width="230" height="39" as="geometry" />
        </mxCell>
        <mxCell id="xxxzWwq94ZiGuZ_kyx1f-85" value="FK2" style="shape=partialRectangle;connectable=0;fillColor=none;top=0;left=0;bottom=0;right=0;editable=1;overflow=hidden;whiteSpace=wrap;html=1;fontSize=16;fontStyle=1" vertex="1" parent="xxxzWwq94ZiGuZ_kyx1f-84">
          <mxGeometry width="40" height="39" as="geometry">
            <mxRectangle width="40" height="39" as="alternateBounds" />
          </mxGeometry>
        </mxCell>
        <mxCell id="xxxzWwq94ZiGuZ_kyx1f-86" value="customer_key" style="shape=partialRectangle;connectable=0;fillColor=none;top=0;left=0;bottom=0;right=0;align=left;spacingLeft=6;overflow=hidden;whiteSpace=wrap;html=1;fontSize=16;fontStyle=1" vertex="1" parent="xxxzWwq94ZiGuZ_kyx1f-84">
          <mxGeometry x="40" width="190" height="39" as="geometry">
            <mxRectangle width="190" height="39" as="alternateBounds" />
          </mxGeometry>
        </mxCell>
        <mxCell id="xxxzWwq94ZiGuZ_kyx1f-87" value="" style="shape=tableRow;horizontal=0;startSize=0;swimlaneHead=0;swimlaneBody=0;fillColor=none;collapsible=0;dropTarget=0;points=[[0,0.5],[1,0.5]];portConstraint=eastwest;top=0;left=0;right=0;bottom=0;fontSize=16;fontStyle=1" vertex="1" parent="xxxzWwq94ZiGuZ_kyx1f-74">
          <mxGeometry y="157" width="230" height="39" as="geometry" />
        </mxCell>
        <mxCell id="xxxzWwq94ZiGuZ_kyx1f-88" value="" style="shape=partialRectangle;connectable=0;fillColor=none;top=0;left=0;bottom=0;right=0;editable=1;overflow=hidden;whiteSpace=wrap;html=1;fontSize=16;fontStyle=1" vertex="1" parent="xxxzWwq94ZiGuZ_kyx1f-87">
          <mxGeometry width="40" height="39" as="geometry">
            <mxRectangle width="40" height="39" as="alternateBounds" />
          </mxGeometry>
        </mxCell>
        <mxCell id="xxxzWwq94ZiGuZ_kyx1f-89" value="order_date" style="shape=partialRectangle;connectable=0;fillColor=none;top=0;left=0;bottom=0;right=0;align=left;spacingLeft=6;overflow=hidden;whiteSpace=wrap;html=1;fontSize=16;fontStyle=1" vertex="1" parent="xxxzWwq94ZiGuZ_kyx1f-87">
          <mxGeometry x="40" width="190" height="39" as="geometry">
            <mxRectangle width="190" height="39" as="alternateBounds" />
          </mxGeometry>
        </mxCell>
        <mxCell id="xxxzWwq94ZiGuZ_kyx1f-90" value="" style="shape=tableRow;horizontal=0;startSize=0;swimlaneHead=0;swimlaneBody=0;fillColor=none;collapsible=0;dropTarget=0;points=[[0,0.5],[1,0.5]];portConstraint=eastwest;top=0;left=0;right=0;bottom=0;fontSize=16;fontStyle=1" vertex="1" parent="xxxzWwq94ZiGuZ_kyx1f-74">
          <mxGeometry y="196" width="230" height="39" as="geometry" />
        </mxCell>
        <mxCell id="xxxzWwq94ZiGuZ_kyx1f-91" value="" style="shape=partialRectangle;connectable=0;fillColor=none;top=0;left=0;bottom=0;right=0;editable=1;overflow=hidden;whiteSpace=wrap;html=1;fontSize=16;fontStyle=1" vertex="1" parent="xxxzWwq94ZiGuZ_kyx1f-90">
          <mxGeometry width="40" height="39" as="geometry">
            <mxRectangle width="40" height="39" as="alternateBounds" />
          </mxGeometry>
        </mxCell>
        <mxCell id="xxxzWwq94ZiGuZ_kyx1f-92" value="shipping_date" style="shape=partialRectangle;connectable=0;fillColor=none;top=0;left=0;bottom=0;right=0;align=left;spacingLeft=6;overflow=hidden;whiteSpace=wrap;html=1;fontSize=16;fontStyle=1" vertex="1" parent="xxxzWwq94ZiGuZ_kyx1f-90">
          <mxGeometry x="40" width="190" height="39" as="geometry">
            <mxRectangle width="190" height="39" as="alternateBounds" />
          </mxGeometry>
        </mxCell>
        <mxCell id="xxxzWwq94ZiGuZ_kyx1f-93" value="" style="shape=tableRow;horizontal=0;startSize=0;swimlaneHead=0;swimlaneBody=0;fillColor=none;collapsible=0;dropTarget=0;points=[[0,0.5],[1,0.5]];portConstraint=eastwest;top=0;left=0;right=0;bottom=0;fontSize=16;fontStyle=1" vertex="1" parent="xxxzWwq94ZiGuZ_kyx1f-74">
          <mxGeometry y="235" width="230" height="39" as="geometry" />
        </mxCell>
        <mxCell id="xxxzWwq94ZiGuZ_kyx1f-94" value="" style="shape=partialRectangle;connectable=0;fillColor=none;top=0;left=0;bottom=0;right=0;editable=1;overflow=hidden;whiteSpace=wrap;html=1;fontSize=16;fontStyle=1" vertex="1" parent="xxxzWwq94ZiGuZ_kyx1f-93">
          <mxGeometry width="40" height="39" as="geometry">
            <mxRectangle width="40" height="39" as="alternateBounds" />
          </mxGeometry>
        </mxCell>
        <mxCell id="xxxzWwq94ZiGuZ_kyx1f-95" value="due_date" style="shape=partialRectangle;connectable=0;fillColor=none;top=0;left=0;bottom=0;right=0;align=left;spacingLeft=6;overflow=hidden;whiteSpace=wrap;html=1;fontSize=16;fontStyle=1" vertex="1" parent="xxxzWwq94ZiGuZ_kyx1f-93">
          <mxGeometry x="40" width="190" height="39" as="geometry">
            <mxRectangle width="190" height="39" as="alternateBounds" />
          </mxGeometry>
        </mxCell>
        <mxCell id="xxxzWwq94ZiGuZ_kyx1f-96" value="" style="shape=tableRow;horizontal=0;startSize=0;swimlaneHead=0;swimlaneBody=0;fillColor=none;collapsible=0;dropTarget=0;points=[[0,0.5],[1,0.5]];portConstraint=eastwest;top=0;left=0;right=0;bottom=0;fontSize=16;fontStyle=1" vertex="1" parent="xxxzWwq94ZiGuZ_kyx1f-74">
          <mxGeometry y="274" width="230" height="39" as="geometry" />
        </mxCell>
        <mxCell id="xxxzWwq94ZiGuZ_kyx1f-97" value="" style="shape=partialRectangle;connectable=0;fillColor=none;top=0;left=0;bottom=0;right=0;editable=1;overflow=hidden;whiteSpace=wrap;html=1;fontSize=16;fontStyle=1" vertex="1" parent="xxxzWwq94ZiGuZ_kyx1f-96">
          <mxGeometry width="40" height="39" as="geometry">
            <mxRectangle width="40" height="39" as="alternateBounds" />
          </mxGeometry>
        </mxCell>
        <mxCell id="xxxzWwq94ZiGuZ_kyx1f-98" value="sales_amount" style="shape=partialRectangle;connectable=0;fillColor=none;top=0;left=0;bottom=0;right=0;align=left;spacingLeft=6;overflow=hidden;whiteSpace=wrap;html=1;fontSize=16;fontStyle=1" vertex="1" parent="xxxzWwq94ZiGuZ_kyx1f-96">
          <mxGeometry x="40" width="190" height="39" as="geometry">
            <mxRectangle width="190" height="39" as="alternateBounds" />
          </mxGeometry>
        </mxCell>
        <mxCell id="xxxzWwq94ZiGuZ_kyx1f-99" value="" style="shape=tableRow;horizontal=0;startSize=0;swimlaneHead=0;swimlaneBody=0;fillColor=none;collapsible=0;dropTarget=0;points=[[0,0.5],[1,0.5]];portConstraint=eastwest;top=0;left=0;right=0;bottom=0;fontSize=16;fontStyle=1" vertex="1" parent="xxxzWwq94ZiGuZ_kyx1f-74">
          <mxGeometry y="313" width="230" height="39" as="geometry" />
        </mxCell>
        <mxCell id="xxxzWwq94ZiGuZ_kyx1f-100" value="" style="shape=partialRectangle;connectable=0;fillColor=none;top=0;left=0;bottom=0;right=0;editable=1;overflow=hidden;whiteSpace=wrap;html=1;fontSize=16;fontStyle=1" vertex="1" parent="xxxzWwq94ZiGuZ_kyx1f-99">
          <mxGeometry width="40" height="39" as="geometry">
            <mxRectangle width="40" height="39" as="alternateBounds" />
          </mxGeometry>
        </mxCell>
        <mxCell id="xxxzWwq94ZiGuZ_kyx1f-101" value="quantity" style="shape=partialRectangle;connectable=0;fillColor=none;top=0;left=0;bottom=0;right=0;align=left;spacingLeft=6;overflow=hidden;whiteSpace=wrap;html=1;fontSize=16;fontStyle=1" vertex="1" parent="xxxzWwq94ZiGuZ_kyx1f-99">
          <mxGeometry x="40" width="190" height="39" as="geometry">
            <mxRectangle width="190" height="39" as="alternateBounds" />
          </mxGeometry>
        </mxCell>
        <mxCell id="xxxzWwq94ZiGuZ_kyx1f-102" value="" style="shape=tableRow;horizontal=0;startSize=0;swimlaneHead=0;swimlaneBody=0;fillColor=none;collapsible=0;dropTarget=0;points=[[0,0.5],[1,0.5]];portConstraint=eastwest;top=0;left=0;right=0;bottom=0;fontSize=16;fontStyle=1" vertex="1" parent="xxxzWwq94ZiGuZ_kyx1f-74">
          <mxGeometry y="352" width="230" height="39" as="geometry" />
        </mxCell>
        <mxCell id="xxxzWwq94ZiGuZ_kyx1f-103" value="" style="shape=partialRectangle;connectable=0;fillColor=none;top=0;left=0;bottom=0;right=0;editable=1;overflow=hidden;whiteSpace=wrap;html=1;fontSize=16;fontStyle=1" vertex="1" parent="xxxzWwq94ZiGuZ_kyx1f-102">
          <mxGeometry width="40" height="39" as="geometry">
            <mxRectangle width="40" height="39" as="alternateBounds" />
          </mxGeometry>
        </mxCell>
        <mxCell id="xxxzWwq94ZiGuZ_kyx1f-104" value="price" style="shape=partialRectangle;connectable=0;fillColor=none;top=0;left=0;bottom=0;right=0;align=left;spacingLeft=6;overflow=hidden;whiteSpace=wrap;html=1;fontSize=16;fontStyle=1" vertex="1" parent="xxxzWwq94ZiGuZ_kyx1f-102">
          <mxGeometry x="40" width="190" height="39" as="geometry">
            <mxRectangle width="190" height="39" as="alternateBounds" />
          </mxGeometry>
        </mxCell>
        <mxCell id="xxxzWwq94ZiGuZ_kyx1f-108" value="NOTE:&lt;div&gt;PK = primary key&lt;/div&gt;&lt;div&gt;FK = foreign key&lt;/div&gt;&lt;div&gt;&lt;br&gt;&lt;/div&gt;&lt;div&gt;&lt;span style=&quot;font-weight: normal;&quot;&gt;In a star schema, the relationship between fact and dimension is 1-to many (1:N)&lt;/span&gt;&lt;/div&gt;" style="text;html=1;align=center;verticalAlign=middle;whiteSpace=wrap;rounded=0;fontStyle=1;fontSize=15;fillColor=#fff2cc;strokeColor=#d6b656;" vertex="1" parent="1">
          <mxGeometry x="20" y="740" width="260" height="160" as="geometry" />
        </mxCell>
        <mxCell id="xxxzWwq94ZiGuZ_kyx1f-109" value="" style="edgeStyle=entityRelationEdgeStyle;fontSize=12;html=1;endArrow=ERzeroToMany;startArrow=ERmandOne;rounded=0;exitX=1;exitY=0.5;exitDx=0;exitDy=0;entryX=0;entryY=0.5;entryDx=0;entryDy=0;" edge="1" parent="1" source="xxxzWwq94ZiGuZ_kyx1f-6" target="xxxzWwq94ZiGuZ_kyx1f-84">
          <mxGeometry width="100" height="100" relative="1" as="geometry">
            <mxPoint x="270" y="250" as="sourcePoint" />
            <mxPoint x="370" y="150" as="targetPoint" />
          </mxGeometry>
        </mxCell>
        <mxCell id="xxxzWwq94ZiGuZ_kyx1f-110" value="" style="edgeStyle=entityRelationEdgeStyle;fontSize=12;html=1;endArrow=ERzeroToMany;startArrow=ERmandOne;rounded=0;exitX=0;exitY=0.5;exitDx=0;exitDy=0;entryX=1;entryY=0.5;entryDx=0;entryDy=0;" edge="1" parent="1" source="xxxzWwq94ZiGuZ_kyx1f-40" target="xxxzWwq94ZiGuZ_kyx1f-81">
          <mxGeometry width="100" height="100" relative="1" as="geometry">
            <mxPoint x="620" y="290" as="sourcePoint" />
            <mxPoint x="740" y="368" as="targetPoint" />
          </mxGeometry>
        </mxCell>
        <mxCell id="xxxzWwq94ZiGuZ_kyx1f-112" value="&lt;h1 style=&quot;margin-top: 0px;&quot;&gt;&lt;font style=&quot;font-size: 18px;&quot;&gt;&lt;u&gt;Sales Calculation&lt;/u&gt;&lt;/font&gt;&lt;/h1&gt;&lt;p&gt;&lt;font style=&quot;font-size: 15px;&quot;&gt;Sales = Quantity * Price&lt;/font&gt;&lt;/p&gt;" style="text;html=1;whiteSpace=wrap;overflow=hidden;rounded=0;fontSize=12;" vertex="1" parent="1">
          <mxGeometry x="520" y="560" width="180" height="120" as="geometry" />
        </mxCell>
        <mxCell id="xxxzWwq94ZiGuZ_kyx1f-113" value="" style="endArrow=none;dashed=1;html=1;dashPattern=1 3;strokeWidth=2;rounded=0;entryX=0;entryY=0;entryDx=0;entryDy=0;" edge="1" parent="1" source="xxxzWwq94ZiGuZ_kyx1f-96" target="xxxzWwq94ZiGuZ_kyx1f-112">
          <mxGeometry width="50" height="50" relative="1" as="geometry">
            <mxPoint x="340" y="630" as="sourcePoint" />
            <mxPoint x="370" y="640" as="targetPoint" />
          </mxGeometry>
        </mxCell>
      </root>
    </mxGraphModel>
  </diagram>
</mxfile>
